<svg xmlns="http://www.w3.org/2000/svg" viewBox="0 0 120 64"><path d="M18 50.11l-.89-2.32h-3.42l-.88 2.32H12l3.14-7.7h.61l3.07 7.7zm-2.59-6.85l-1.5 3.93h3zm10-.85a2.18 2.18 0 0 1 1.87.77 2 2 0 0 1 .37 1.15A1.6 1.6 0 0 1 26.33 46a1.87 1.87 0 0 1 1.64 2 2.05 2.05 0 0 1-1 1.88 3.67 3.67 0 0 1-1.72.3H22v-7.7zm-2.73 3.26h2.5c1.27 0 1.7-.61 1.7-1.35a1.25 1.25 0 0 0-.23-.75 1.81 1.81 0 0 0-1.58-.5h-2.32zm2.74 3.77c1 0 1.75-.48 1.75-1.48a1.54 1.54 0 0 0-.77-1.37 3 3 0 0 0-1.57-.28h-2.07v3.14zm4.28-4.54v.82a1.47 1.47 0 0 1 1.43-.91h.45v.58a2.25 2.25 0 0 0-.41 0c-1.11 0-1.47.82-1.47 1.87v2.85h-.64v-5.2zm7.08 5.2c-.86 0-1.27-.22-1.27-.95a1.86 1.86 0 0 1-1.84 1.06 1.45 1.45 0 0 1-1.64-1.42c0-1 .88-1.41 2.61-1.8l.87-.2v-.4c0-.5-.25-1.06-1.21-1.06s-1.3.43-1.3 1.27l-.71-.12a1.85 1.85 0 0 1 2-1.7c.91 0 1.91.27 1.91 1.57v2.28c0 .7 0 1 .67 1H37v.51zm-1.27-2.75l-.33.09c-1.77.47-2.53.58-2.53 1.34a.92.92 0 0 0 1 .86 1.9 1.9 0 0 0 1.67-1 2 2 0 0 0 .14-.91zm8.33 2.75v-3.25c0-.62 0-1-.36-1.28a1 1 0 0 0-.64-.19 1.31 1.31 0 0 0-1.22.84 3.84 3.84 0 0 0-.21 1.71v2.17h-.63v-2.88a3.14 3.14 0 0 0-.16-1.39.91.91 0 0 0-.84-.45 1.26 1.26 0 0 0-1.16.7 3.88 3.88 0 0 0-.2 1.92v2.09h-.64v-5.2h.64V46A1.48 1.48 0 0 1 40 44.81a1.34 1.34 0 0 1 1.32.79 1.67 1.67 0 0 1 .11.51 1.87 1.87 0 0 1 .21-.52 1.51 1.51 0 0 1 1.36-.78 1.56 1.56 0 0 1 .93.27c.57.4.59 1.07.59 2.23v2.83zm2.8-7.7v3.4a1.71 1.71 0 0 1 1.59-1c1.56 0 2.17 1.51 2.17 2.8 0 1-.41 2.64-2.13 2.64a1.67 1.67 0 0 1-1.63-1v.93h-.62v-7.76zm1.55 7.24c1 0 1.53-.73 1.53-2s-.45-2.24-1.58-2.24c-1 0-1.49.75-1.49 2.12 0 .83.22 2.16 1.55 2.16zm3.4.46v-7.7h.65v7.7zm2.54-2.45a1.76 1.76 0 0 0 1.75 2 1.74 1.74 0 0 0 1.69-1.09l.6.18a2.32 2.32 0 0 1-2.17 1.5 2.5 2.5 0 0 1-2.49-2.78 2.39 2.39 0 1 1 4.75 0v.1h-4zm3.36-.65a1.6 1.6 0 0 0-1.61-1.63A1.68 1.68 0 0 0 54.21 47zm2.1 1.65a1.41 1.41 0 0 0 1.45 1c1 0 1.33-.56 1.33-1s-.27-.75-1.12-.93l-.61-.13c-.81-.18-1.35-.53-1.35-1.3a1.42 1.42 0 0 1 .45-1.06 2.21 2.21 0 0 1 1.42-.44 2.31 2.31 0 0 1 1.28.34A1.43 1.43 0 0 1 63 46l-.61.16c-.12-.6-.74-.77-1.27-.77-1.06 0-1.2.56-1.2.87 0 .61.64.75 1.09.84l.55.11c.92.19 1.44.71 1.44 1.52 0 .6-.48 1.56-1.94 1.56A2.12 2.12 0 0 1 59 48.85zm12.26-4a2.07 2.07 0 0 0-2.23-1.72c-2.26 0-2.54 2.31-2.54 3.36 0 1.3.24 3.44 2.68 3.44a2.07 2.07 0 0 0 2.1-1.73l.69.41a2.87 2.87 0 0 1-2.86 1.88c-2.72 0-3.36-2.27-3.36-4s.57-4.09 3.29-4.09a2.89 2.89 0 0 1 3 2zm3.91 5.66a2.37 2.37 0 0 1-2.33-2.67c0-1.61.88-2.8 2.38-2.8s2.32 1.39 2.35 2.71a2.45 2.45 0 0 1-2.39 2.76zm0-4.92c-.93 0-1.68.69-1.68 2.25s.84 2.11 1.66 2.11 1.69-.52 1.69-2.19-.85-2.16-1.67-2.16zm9.68 4.79v-3.33c0-.62 0-1-.36-1.28a1 1 0 0 0-.65-.19 1.31 1.31 0 0 0-1.22.84 3.84 3.84 0 0 0-.21 1.72v2.17h-.63v-2.89a3.14 3.14 0 0 0-.16-1.39.91.91 0 0 0-.84-.45 1.26 1.26 0 0 0-1.16.7A3.88 3.88 0 0 0 80 48v2.09h-.64v-5.2H80V46a1.48 1.48 0 0 1 1.55-1.19 1.34 1.34 0 0 1 1.32.79 1.71 1.71 0 0 1 .11.51 1.87 1.87 0 0 1 .21-.52 1.51 1.51 0 0 1 1.42-.78 1.56 1.56 0 0 1 .93.27c.57.4.59 1.07.59 2.23v2.83zm2.81-5.2v.85a1.59 1.59 0 0 1 1.57-1c1.9 0 2.18 2 2.18 2.73s-.38 2.71-2.18 2.71a1.61 1.61 0 0 1-1.57-1v3.63h-.63v-8zm0 2.8a1.91 1.91 0 0 0 .57 1.6 1.36 1.36 0 0 0 .91.3c1.2 0 1.61-1.17 1.61-2.17s-.41-2.05-1.63-2.05-1.47 1.25-1.47 2.05zm9.36 2.4c-.86 0-1.26-.22-1.26-.95a1.86 1.86 0 0 1-1.84 1.06 1.45 1.45 0 0 1-1.64-1.42c0-1 .88-1.41 2.61-1.8l.87-.2v-.4c0-.5-.25-1.06-1.21-1.06s-1.41.41-1.41 1.25l-.71-.12a1.85 1.85 0 0 1 2-1.7C96 44.77 97 45 97 46.34v2.28c0 .7 0 1 .67 1h.11v.51zm-1.26-2.75l-.33.09c-1.77.47-2.53.58-2.53 1.34a.92.92 0 0 0 1 .86 1.9 1.9 0 0 0 1.67-1 2 2 0 0 0 .14-.91zm5.6 2.75v-2.7a4.29 4.29 0 0 0-.12-1.42 1.1 1.1 0 0 0-1.08-.61 1.55 1.55 0 0 0-1.56 1.76v3h-.64v-5.2h.64v.93a1.58 1.58 0 0 1 1.64-1 1.62 1.62 0 0 1 1.58.9 3.44 3.44 0 0 1 .19 1.47v3zm6-5.2l-2.45 6.22c-.41 1.07-.62 1.63-1.4 1.63a1.17 1.17 0 0 1-.68-.21v-.72a1.12 1.12 0 0 0 .68.25c.37 0 .48-.23.7-.79l.48-1.24-1.8-5.2h.61l1.52 4.42 1.69-4.43z"></path><path d="M101.45 11.15H83.69l-5.21 19.47h5.84l3.85-14.36a.68.68 0 0 1 .61-.48h8.51a.36.36 0 0 1 .36.49l-1.12 4.13a.68.68 0 0 1-.62.49h-6.28l-1.17 4.38h9.2a4.1 4.1 0 0 0 3.7-2.92l2.22-8.28a2.17 2.17 0 0 0-2.13-2.92m-48.78 0L50.84 18a.68.68 0 0 1-.62.49h-7.54a.36.36 0 0 1-.36-.49l1.83-6.81h-6L33 30.62h5.95l1.83-6.82a.68.68 0 0 1 .62-.49h7.53a.36.36 0 0 1 .36.49l-1.82 6.81h6l5.21-19.47zM63.9 25.5l.56-2.07a.68.68 0 0 1 .62-.49H74l1.11-4.14h-8.93a.36.36 0 0 1-.36-.49l.55-2.07a.68.68 0 0 1 .62-.49h12.3l1.24-4.61H62l-5.18 19.48h18.49L76.55 26h-12.3a.36.36 0 0 1-.36-.49m-45.16-.72L20.82 17a.68.68 0 0 1 .62-.49H33.6l1.4-5.38H19.47a4.1 4.1 0 0 0-3.7 2.92L12.1 27.7a2.17 2.17 0 0 0 2.13 2.92h15.59l1.44-5.36H19.09a.36.36 0 0 1-.36-.49" fill="#0076bf"></path></svg>